<svg width="84" height="88" viewBox="0 0 84 88" fill="none" xmlns="http://www.w3.org/2000/svg">
<rect width="84" height="84" rx="18" fill="#D9D9D9"/>
<path d="M41.9062 25.4062H45.6562V35.125L41.9062 36.0625V25.4062ZM28.7188 38.5312V28.375H32.4688V38.125L28.7188 38.5312ZM64.9062 47.3438C64.9062 48.3229 64.5938 49.1875 63.9688 49.9375C63.3438 50.6667 62.5417 51.1146 61.5625 51.2812L42.5938 54.625C41.4271 54.8333 40.3542 54.875 39.375 54.75C38.4167 54.6042 37.4271 54.2812 36.4062 53.7812L26.4688 48.8438C24.8021 48.0104 23.9688 46.6667 23.9688 44.8125V41.8438C23.9688 40.8646 24.2812 40.0104 24.9062 39.2812C25.5521 38.5312 26.3542 38.0729 27.3125 37.9062L47.2812 34.4062C48.1771 34.2396 48.9375 34.2083 49.5625 34.3125C50.1875 34.3958 50.8958 34.6354 51.6875 35.0312L62.7812 40.5312C64.1979 41.2396 64.9062 42.3854 64.9062 43.9688V47.3438ZM61.7812 47.3438V43.9688C61.7812 43.6771 61.6354 43.4583 61.3438 43.3125L50.3125 37.8438C49.7917 37.5938 49.3854 37.4479 49.0938 37.4062C48.8229 37.3646 48.3854 37.3958 47.7812 37.5L27.8438 41C27.3438 41.1042 27.0938 41.3854 27.0938 41.8438V44.8125C27.0938 45.375 27.3438 45.7812 27.8438 46.0312L37.7812 50.9688C38.5312 51.3438 39.2083 51.5729 39.8125 51.6562C40.4375 51.7188 41.1875 51.6771 42.0625 51.5312L61.0312 48.1875C61.5312 48.0833 61.7812 47.8021 61.7812 47.3438ZM41.3125 52.9688V74.9375H37.5625V51.5625L41.3125 52.9688ZM62.8125 41.875L63.3438 44.9688L42.5312 48.625C41.3646 48.8333 40.2917 48.875 39.3125 48.75C38.3542 48.625 37.3646 48.3021 36.3438 47.7812L25.4062 42.25L26.7812 39.4375L37.7188 44.9688C38.4688 45.3438 39.1458 45.5729 39.75 45.6562C40.375 45.7188 41.125 45.6771 42 45.5312L62.8125 41.875ZM62.2188 49.1875V71.1562H58.4688V50.4062L62.2188 49.1875ZM50.375 52.6875V65.7812H46.625V52.6875H50.375ZM30.1875 48V69.1875H26.4375V47.3438L30.1875 48ZM22.3438 26.4375V15.5312C22.3438 14.8438 22.5521 14.25 22.9688 13.75C23.3854 13.2292 23.9271 12.9167 24.5938 12.8125L46.5312 9.34375C47.4896 9.17708 48.3125 9.38542 49 9.96875C49.7083 10.5521 50.0625 11.3229 50.0625 12.2812V24.0312C50.0625 24.7188 49.8542 25.3229 49.4375 25.8438C49.0208 26.3438 48.4792 26.6458 47.8125 26.75L30.2812 29.5938C29.5312 29.7188 28.8021 29.8229 28.0938 29.9062C27.4062 29.9688 26.6979 30 25.9688 30C24.5729 30 23.6146 29.6979 23.0938 29.0938C22.5938 28.4688 22.3438 27.5833 22.3438 26.4375ZM27.3438 26.9062V28.2812C27.0938 28.1146 26.9167 27.9062 26.8125 27.6562C26.7292 27.4062 26.6875 27.1771 26.6875 26.9688V15.5938C26.6875 15.3646 26.7188 15.1354 26.7812 14.9062C26.8438 14.6771 26.9479 14.4688 27.0938 14.2812L27.5312 15.5938L25.8438 15.7812C25.5938 15.8229 25.4688 15.9688 25.4688 16.2188V26.4062C25.4688 26.5521 25.5312 26.6771 25.6562 26.7812C25.7812 26.8646 25.9167 26.9062 26.0625 26.9062H27.3438ZM29.7812 26.0625C29.7812 26.2083 29.8438 26.3333 29.9688 26.4375C30.0938 26.5417 30.2292 26.5833 30.375 26.5625L46.5625 23.7812C46.8125 23.7396 46.9375 23.5938 46.9375 23.3438V13.0625C46.9375 12.8958 46.875 12.7604 46.75 12.6562C46.6458 12.5521 46.5104 12.5208 46.3438 12.5625L30.1562 15.0625C29.9062 15.1042 29.7812 15.25 29.7812 15.5V26.0625Z" fill="black"/>
</svg>
