<svg width="356" height="120" viewBox="0 0 356 120" fill="none" xmlns="http://www.w3.org/2000/svg">
<path d="M21.12 59.768C16.6827 59.768 13.056 58.8293 10.24 56.952C7.46667 55.0747 5.52533 52.536 4.416 49.336C3.34933 46.136 3.17867 42.552 3.904 38.584C4.45867 35.5973 5.48267 32.8667 6.976 30.392C8.512 27.9173 10.3893 25.784 12.608 23.992C14.8267 22.1573 17.3013 20.7493 20.032 19.768C22.7627 18.7867 25.6213 18.296 28.608 18.296C30.4853 18.296 32.32 18.488 34.112 18.872C35.9467 19.2133 37.3547 19.64 38.336 20.152C38.6347 20.3227 38.8053 20.4933 38.848 20.664C38.8907 20.8347 38.8907 21.1547 38.848 21.624L37.824 30.2C37.7813 30.328 37.6533 30.392 37.44 30.392C37.2693 30.392 37.1627 30.328 37.12 30.2C36.3947 27.0427 35.0933 24.5467 33.216 22.712C31.3387 20.8347 28.9067 19.896 25.92 19.896C23.36 19.896 21.056 20.5573 19.008 21.88C17.0027 23.2027 15.3173 25.1013 13.952 27.576C12.5867 30.008 11.648 32.888 11.136 36.216C10.496 40.696 10.56 44.6 11.328 47.928C12.1387 51.256 13.5467 53.8373 15.552 55.672C17.6 57.5067 20.16 58.424 23.232 58.424C24.5973 58.424 25.7067 58.2107 26.56 57.784C27.456 57.3147 28.1387 56.5467 28.608 55.48C29.12 54.3707 29.4827 52.856 29.696 50.936C29.9947 48.888 30.0587 47.3947 29.888 46.456C29.76 45.4747 29.248 44.8347 28.352 44.536C27.4987 44.2373 26.0907 44.088 24.128 44.088C23.9147 44.088 23.808 43.9173 23.808 43.576C23.8507 43.2347 23.9573 43.064 24.128 43.064C26.7307 43.2347 29.12 43.3413 31.296 43.384C33.5147 43.384 35.84 43.32 38.272 43.192C38.4 43.192 38.4853 43.3413 38.528 43.64C38.5707 43.9387 38.4853 44.088 38.272 44.088C37.7173 44.0453 37.312 44.1947 37.056 44.536C36.8 44.8347 36.5867 45.5173 36.416 46.584C36.2453 47.6507 35.9893 49.3147 35.648 51.576C35.4347 52.984 35.3067 54.0293 35.264 54.712C35.2213 55.3947 35.1787 55.9067 35.136 56.248C35.136 56.5467 35.0933 56.8667 35.008 57.208C34.9653 57.464 34.9013 57.6347 34.816 57.72C34.7307 57.8053 34.56 57.8907 34.304 57.976C32.128 58.488 29.888 58.9147 27.584 59.256C25.28 59.5973 23.1253 59.768 21.12 59.768ZM50.74 59.768C48.2653 59.768 46.324 59.1493 44.916 57.912C43.5507 56.6747 42.6547 55.096 42.228 53.176C41.844 51.256 41.844 49.2507 42.228 47.16C42.5693 45.496 43.188 43.8533 44.084 42.232C44.98 40.568 46.1107 39.096 47.476 37.816C48.8413 36.4933 50.3987 35.448 52.148 34.68C53.8973 33.8693 55.7747 33.464 57.78 33.464C59.5293 33.464 60.8307 33.7627 61.684 34.36C62.58 34.9573 62.9853 35.8107 62.9 36.92C62.772 38.0293 62.196 39.096 61.172 40.12C60.148 41.144 58.7827 42.0613 57.076 42.872C55.412 43.6827 53.5347 44.3867 51.444 44.984C49.396 45.5387 47.3053 45.9227 45.172 46.136L45.3 45.304C48.3293 44.8347 50.868 44.0667 52.916 43C54.964 41.8907 56.1373 40.312 56.436 38.264C56.6067 37.3253 56.5 36.5787 56.116 36.024C55.7747 35.4693 55.22 35.192 54.452 35.192C53.4707 35.192 52.5747 35.64 51.764 36.536C50.996 37.3893 50.3133 38.5627 49.716 40.056C49.1613 41.5493 48.7347 43.2133 48.436 45.048C48.0947 47.224 48.0733 49.208 48.372 51C48.6707 52.792 49.332 54.2427 50.356 55.352C51.38 56.4187 52.7667 56.952 54.516 56.952C55.3267 56.952 56.244 56.8027 57.268 56.504C58.3347 56.2053 59.3373 55.6933 60.276 54.968C60.3613 54.8827 60.468 54.9253 60.596 55.096C60.7667 55.2667 60.8093 55.3947 60.724 55.48C59.1027 57.0587 57.4173 58.168 55.668 58.808C53.9613 59.448 52.3187 59.768 50.74 59.768ZM71.439 59.768C70.415 59.768 69.455 59.5973 68.559 59.256C67.663 58.9147 67.0017 58.2533 66.575 57.272C66.1483 56.2907 66.1057 54.8613 66.447 52.984L68.943 39.416C69.199 38.008 69.199 37.0907 68.943 36.664C68.687 36.2373 67.9617 36.024 66.767 36.024C66.5963 36.024 66.511 35.8533 66.511 35.512C66.5537 35.1707 66.639 35 66.767 35C68.815 35 70.479 34.424 71.759 33.272C73.0817 32.12 74.127 30.8187 74.895 29.368C74.9803 29.1973 75.215 29.1547 75.599 29.24C75.983 29.2827 76.1537 29.3893 76.111 29.56L72.143 51.896C71.887 53.3893 72.015 54.4987 72.527 55.224C73.039 55.9067 73.9563 56.248 75.279 56.248C76.1323 56.248 76.9857 56.056 77.839 55.672C78.735 55.288 79.6737 54.6907 80.655 53.88C80.7403 53.7947 80.8683 53.8373 81.039 54.008C81.2523 54.1787 81.295 54.328 81.167 54.456C79.2043 56.3333 77.455 57.6987 75.919 58.552C74.4257 59.3627 72.9323 59.768 71.439 59.768ZM81.167 37.432C81.1243 37.432 80.6977 37.368 79.887 37.24C79.119 37.112 78.159 36.984 77.007 36.856C75.8977 36.728 74.7457 36.664 73.551 36.664L73.679 34.808C75.1297 34.808 76.4523 34.7653 77.647 34.68C78.8417 34.5947 79.887 34.5093 80.783 34.424C81.679 34.3387 82.3617 34.296 82.831 34.296C83.0443 34.296 83.1723 34.3813 83.215 34.552C83.3003 34.7227 83.3217 34.8933 83.279 35.064C83.2363 35.4053 82.9803 35.896 82.511 36.536C82.0843 37.1333 81.6363 37.432 81.167 37.432Z" fill="black"/>
<path d="M291.24 59.768C288.765 59.768 286.824 59.1493 285.416 57.912C284.051 56.6747 283.155 55.096 282.728 53.176C282.344 51.256 282.344 49.2507 282.728 47.16C283.069 45.496 283.688 43.8533 284.584 42.232C285.48 40.568 286.611 39.096 287.976 37.816C289.341 36.4933 290.899 35.448 292.648 34.68C294.397 33.8693 296.275 33.464 298.28 33.464C300.029 33.464 301.331 33.7627 302.184 34.36C303.08 34.9573 303.485 35.8107 303.4 36.92C303.272 38.0293 302.696 39.096 301.672 40.12C300.648 41.144 299.283 42.0613 297.576 42.872C295.912 43.6827 294.035 44.3867 291.944 44.984C289.896 45.5387 287.805 45.9227 285.672 46.136L285.8 45.304C288.829 44.8347 291.368 44.0667 293.416 43C295.464 41.8907 296.637 40.312 296.936 38.264C297.107 37.3253 297 36.5787 296.616 36.024C296.275 35.4693 295.72 35.192 294.952 35.192C293.971 35.192 293.075 35.64 292.264 36.536C291.496 37.3893 290.813 38.5627 290.216 40.056C289.661 41.5493 289.235 43.2133 288.936 45.048C288.595 47.224 288.573 49.208 288.872 51C289.171 52.792 289.832 54.2427 290.856 55.352C291.88 56.4187 293.267 56.952 295.016 56.952C295.827 56.952 296.744 56.8027 297.768 56.504C298.835 56.2053 299.837 55.6933 300.776 54.968C300.861 54.8827 300.968 54.9253 301.096 55.096C301.267 55.2667 301.309 55.3947 301.224 55.48C299.603 57.0587 297.917 58.168 296.168 58.808C294.461 59.448 292.819 59.768 291.24 59.768ZM308.812 59.832C307.361 59.832 306.209 59.32 305.356 58.296C304.545 57.2293 304.311 55.5227 304.652 53.176C304.951 51 305.676 48.7813 306.828 46.52C308.023 44.216 309.473 42.0827 311.18 40.12C312.929 38.1147 314.764 36.5147 316.684 35.32C318.647 34.0827 320.524 33.464 322.316 33.464C323.169 33.464 324.044 33.6347 324.94 33.976C325.836 34.2747 326.604 34.7867 327.244 35.512C327.927 36.1947 328.311 37.112 328.396 38.264L324.556 36.152C325.281 36.0667 326.028 35.7253 326.796 35.128C327.607 34.5307 328.289 33.8053 328.844 32.952C328.929 32.824 329.079 32.8027 329.292 32.888C329.548 32.9733 329.655 33.0587 329.612 33.144L325.9 53.304C325.516 55.3093 325.751 56.312 326.604 56.312C327.031 56.312 327.543 56.12 328.14 55.736C328.737 55.3093 329.377 54.7547 330.06 54.072C330.188 53.944 330.337 53.9653 330.508 54.136C330.679 54.3067 330.7 54.456 330.572 54.584C329.249 56.1627 327.991 57.4 326.796 58.296C325.644 59.1493 324.513 59.576 323.404 59.576C322.039 59.576 321.1 59.0853 320.588 58.104C320.119 57.08 320.055 55.48 320.396 53.304L321.996 44.344L323.34 43.256C322.316 46.7547 320.993 49.7413 319.372 52.216C317.751 54.6907 316.023 56.5893 314.188 57.912C312.353 59.192 310.561 59.832 308.812 59.832ZM312.908 55.16C313.932 55.16 314.956 54.7547 315.98 53.944C317.004 53.1333 317.943 52.088 318.796 50.808C319.692 49.528 320.439 48.184 321.036 46.776C321.676 45.3253 322.103 44.0027 322.316 42.808C322.657 40.888 322.529 39.3733 321.932 38.264C321.335 37.1547 320.396 36.6 319.116 36.6C317.921 36.6 316.748 37.0907 315.596 38.072C314.444 39.0533 313.42 40.3973 312.524 42.104C311.628 43.8107 310.988 45.7733 310.604 47.992C310.177 50.68 310.22 52.5573 310.732 53.624C311.244 54.648 311.969 55.16 312.908 55.16ZM340.002 59.768C338.978 59.768 338.018 59.5973 337.122 59.256C336.226 58.9147 335.564 58.2533 335.138 57.272C334.711 56.2907 334.668 54.8613 335.01 52.984L337.506 39.416C337.762 38.008 337.762 37.0907 337.506 36.664C337.25 36.2373 336.524 36.024 335.33 36.024C335.159 36.024 335.074 35.8533 335.074 35.512C335.116 35.1707 335.202 35 335.33 35C337.378 35 339.042 34.424 340.322 33.272C341.644 32.12 342.69 30.8187 343.458 29.368C343.543 29.1973 343.778 29.1547 344.162 29.24C344.546 29.2827 344.716 29.3893 344.674 29.56L340.706 51.896C340.45 53.3893 340.578 54.4987 341.09 55.224C341.602 55.9067 342.519 56.248 343.842 56.248C344.695 56.248 345.548 56.056 346.402 55.672C347.298 55.288 348.236 54.6907 349.218 53.88C349.303 53.7947 349.431 53.8373 349.602 54.008C349.815 54.1787 349.858 54.328 349.73 54.456C347.767 56.3333 346.018 57.6987 344.482 58.552C342.988 59.3627 341.495 59.768 340.002 59.768ZM349.73 37.432C349.687 37.432 349.26 37.368 348.45 37.24C347.682 37.112 346.722 36.984 345.57 36.856C344.46 36.728 343.308 36.664 342.114 36.664L342.242 34.808C343.692 34.808 345.015 34.7653 346.21 34.68C347.404 34.5947 348.45 34.5093 349.346 34.424C350.242 34.3387 350.924 34.296 351.394 34.296C351.607 34.296 351.735 34.3813 351.778 34.552C351.863 34.7227 351.884 34.8933 351.842 35.064C351.799 35.4053 351.543 35.896 351.074 36.536C350.647 37.1333 350.199 37.432 349.73 37.432Z" fill="black"/>
<path d="M115.064 59.768C114.04 59.768 113.08 59.5973 112.184 59.256C111.288 58.9147 110.627 58.2533 110.2 57.272C109.773 56.2907 109.731 54.8613 110.072 52.984L112.568 39.416C112.824 38.008 112.824 37.0907 112.568 36.664C112.312 36.2373 111.587 36.024 110.392 36.024C110.221 36.024 110.136 35.8533 110.136 35.512C110.179 35.1707 110.264 35 110.392 35C112.44 35 114.104 34.424 115.384 33.272C116.707 32.12 117.752 30.8187 118.52 29.368C118.605 29.1973 118.84 29.1547 119.224 29.24C119.608 29.2827 119.779 29.3893 119.736 29.56L115.768 51.896C115.512 53.3893 115.64 54.4987 116.152 55.224C116.664 55.9067 117.581 56.248 118.904 56.248C119.757 56.248 120.611 56.056 121.464 55.672C122.36 55.288 123.299 54.6907 124.28 53.88C124.365 53.7947 124.493 53.8373 124.664 54.008C124.877 54.1787 124.92 54.328 124.792 54.456C122.829 56.3333 121.08 57.6987 119.544 58.552C118.051 59.3627 116.557 59.768 115.064 59.768ZM124.792 37.432C124.749 37.432 124.323 37.368 123.512 37.24C122.744 37.112 121.784 36.984 120.632 36.856C119.523 36.728 118.371 36.664 117.176 36.664L117.304 34.808C118.755 34.808 120.077 34.7653 121.272 34.68C122.467 34.5947 123.512 34.5093 124.408 34.424C125.304 34.3387 125.987 34.296 126.456 34.296C126.669 34.296 126.797 34.3813 126.84 34.552C126.925 34.7227 126.947 34.8933 126.904 35.064C126.861 35.4053 126.605 35.896 126.136 36.536C125.709 37.1333 125.261 37.432 124.792 37.432ZM136.362 59.896C134.015 59.896 132.138 59.2773 130.73 58.04C129.365 56.8027 128.469 55.1813 128.042 53.176C127.615 51.1707 127.615 48.9947 128.042 46.648C128.554 44.0453 129.493 41.7627 130.858 39.8C132.223 37.7947 133.887 36.2373 135.85 35.128C137.813 34.0187 139.925 33.464 142.186 33.464C144.575 33.464 146.474 34.0613 147.882 35.256C149.29 36.408 150.229 37.9867 150.698 39.992C151.167 41.9547 151.146 44.1733 150.634 46.648C150.079 49.5493 149.034 52.0027 147.498 54.008C146.005 55.9707 144.277 57.4427 142.314 58.424C140.351 59.4053 138.367 59.896 136.362 59.896ZM138.538 58.296C139.903 58.296 141.077 57.5067 142.058 55.928C143.082 54.3067 143.829 52.152 144.298 49.464C144.639 47.544 144.789 45.7307 144.746 44.024C144.746 42.2747 144.554 40.7173 144.17 39.352C143.786 37.9867 143.253 36.92 142.57 36.152C141.887 35.384 141.055 35 140.074 35C138.879 35 137.77 35.7253 136.746 37.176C135.722 38.6267 134.933 40.8667 134.378 43.896C134.037 45.816 133.887 47.6507 133.93 49.4C133.973 51.1493 134.165 52.6853 134.506 54.008C134.89 55.3307 135.423 56.376 136.106 57.144C136.789 57.912 137.599 58.296 138.538 58.296Z" fill="black"/>
</svg>
