<svg width="355" height="77" viewBox="0 0 355 77" fill="none" xmlns="http://www.w3.org/2000/svg">
<path d="M21.12 59.768C16.6827 59.768 13.056 58.8293 10.24 56.952C7.46667 55.0747 5.52533 52.536 4.416 49.336C3.34933 46.136 3.17867 42.552 3.904 38.584C4.45867 35.5973 5.48267 32.8667 6.976 30.392C8.512 27.9173 10.3893 25.784 12.608 23.992C14.8267 22.1573 17.3013 20.7493 20.032 19.768C22.7627 18.7867 25.6213 18.296 28.608 18.296C30.4853 18.296 32.32 18.488 34.112 18.872C35.9467 19.2133 37.3547 19.64 38.336 20.152C38.6347 20.3227 38.8053 20.4933 38.848 20.664C38.8907 20.8347 38.8907 21.1547 38.848 21.624L37.824 30.2C37.7813 30.328 37.6533 30.392 37.44 30.392C37.2693 30.392 37.1627 30.328 37.12 30.2C36.3947 27.0427 35.0933 24.5467 33.216 22.712C31.3387 20.8347 28.9067 19.896 25.92 19.896C23.36 19.896 21.056 20.5573 19.008 21.88C17.0027 23.2027 15.3173 25.1013 13.952 27.576C12.5867 30.008 11.648 32.888 11.136 36.216C10.496 40.696 10.56 44.6 11.328 47.928C12.1387 51.256 13.5467 53.8373 15.552 55.672C17.6 57.5067 20.16 58.424 23.232 58.424C24.5973 58.424 25.7067 58.2107 26.56 57.784C27.456 57.3147 28.1387 56.5467 28.608 55.48C29.12 54.3707 29.4827 52.856 29.696 50.936C29.9947 48.888 30.0587 47.3947 29.888 46.456C29.76 45.4747 29.248 44.8347 28.352 44.536C27.4987 44.2373 26.0907 44.088 24.128 44.088C23.9147 44.088 23.808 43.9173 23.808 43.576C23.8507 43.2347 23.9573 43.064 24.128 43.064C26.7307 43.2347 29.12 43.3413 31.296 43.384C33.5147 43.384 35.84 43.32 38.272 43.192C38.4 43.192 38.4853 43.3413 38.528 43.64C38.5707 43.9387 38.4853 44.088 38.272 44.088C37.7173 44.0453 37.312 44.1947 37.056 44.536C36.8 44.8347 36.5867 45.5173 36.416 46.584C36.2453 47.6507 35.9893 49.3147 35.648 51.576C35.4347 52.984 35.3067 54.0293 35.264 54.712C35.2213 55.3947 35.1787 55.9067 35.136 56.248C35.136 56.5467 35.0933 56.8667 35.008 57.208C34.9653 57.464 34.9013 57.6347 34.816 57.72C34.7307 57.8053 34.56 57.8907 34.304 57.976C32.128 58.488 29.888 58.9147 27.584 59.256C25.28 59.5973 23.1253 59.768 21.12 59.768ZM50.74 59.768C48.2653 59.768 46.324 59.1493 44.916 57.912C43.5507 56.6747 42.6547 55.096 42.228 53.176C41.844 51.256 41.844 49.2507 42.228 47.16C42.5693 45.496 43.188 43.8533 44.084 42.232C44.98 40.568 46.1107 39.096 47.476 37.816C48.8413 36.4933 50.3987 35.448 52.148 34.68C53.8973 33.8693 55.7747 33.464 57.78 33.464C59.5293 33.464 60.8307 33.7627 61.684 34.36C62.58 34.9573 62.9853 35.8107 62.9 36.92C62.772 38.0293 62.196 39.096 61.172 40.12C60.148 41.144 58.7827 42.0613 57.076 42.872C55.412 43.6827 53.5347 44.3867 51.444 44.984C49.396 45.5387 47.3053 45.9227 45.172 46.136L45.3 45.304C48.3293 44.8347 50.868 44.0667 52.916 43C54.964 41.8907 56.1373 40.312 56.436 38.264C56.6067 37.3253 56.5 36.5787 56.116 36.024C55.7747 35.4693 55.22 35.192 54.452 35.192C53.4707 35.192 52.5747 35.64 51.764 36.536C50.996 37.3893 50.3133 38.5627 49.716 40.056C49.1613 41.5493 48.7347 43.2133 48.436 45.048C48.0947 47.224 48.0733 49.208 48.372 51C48.6707 52.792 49.332 54.2427 50.356 55.352C51.38 56.4187 52.7667 56.952 54.516 56.952C55.3267 56.952 56.244 56.8027 57.268 56.504C58.3347 56.2053 59.3373 55.6933 60.276 54.968C60.3613 54.8827 60.468 54.9253 60.596 55.096C60.7667 55.2667 60.8093 55.3947 60.724 55.48C59.1027 57.0587 57.4173 58.168 55.668 58.808C53.9613 59.448 52.3187 59.768 50.74 59.768ZM71.439 59.768C70.415 59.768 69.455 59.5973 68.559 59.256C67.663 58.9147 67.0017 58.2533 66.575 57.272C66.1483 56.2907 66.1057 54.8613 66.447 52.984L68.943 39.416C69.199 38.008 69.199 37.0907 68.943 36.664C68.687 36.2373 67.9617 36.024 66.767 36.024C66.5963 36.024 66.511 35.8533 66.511 35.512C66.5537 35.1707 66.639 35 66.767 35C68.815 35 70.479 34.424 71.759 33.272C73.0817 32.12 74.127 30.8187 74.895 29.368C74.9803 29.1973 75.215 29.1547 75.599 29.24C75.983 29.2827 76.1537 29.3893 76.111 29.56L72.143 51.896C71.887 53.3893 72.015 54.4987 72.527 55.224C73.039 55.9067 73.9563 56.248 75.279 56.248C76.1323 56.248 76.9857 56.056 77.839 55.672C78.735 55.288 79.6737 54.6907 80.655 53.88C80.7403 53.7947 80.8683 53.8373 81.039 54.008C81.2523 54.1787 81.295 54.328 81.167 54.456C79.2043 56.3333 77.455 57.6987 75.919 58.552C74.4257 59.3627 72.9323 59.768 71.439 59.768ZM81.167 37.432C81.1243 37.432 80.6977 37.368 79.887 37.24C79.119 37.112 78.159 36.984 77.007 36.856C75.8977 36.728 74.7457 36.664 73.551 36.664L73.679 34.808C75.1297 34.808 76.4523 34.7653 77.647 34.68C78.8417 34.5947 79.887 34.5093 80.783 34.424C81.679 34.3387 82.3617 34.296 82.831 34.296C83.0443 34.296 83.1723 34.3813 83.215 34.552C83.3003 34.7227 83.3217 34.8933 83.279 35.064C83.2363 35.4053 82.9803 35.896 82.511 36.536C82.0843 37.1333 81.6363 37.432 81.167 37.432ZM96.665 76.984C95.5557 76.984 94.617 76.7067 93.849 76.152C93.0383 75.64 92.7397 74.6373 92.953 73.144C93.2943 71.1813 94.5317 70.2 96.665 70.2C97.561 70.2 98.3717 70.392 99.097 70.776C99.8223 71.2027 100.569 71.5013 101.337 71.672C102.105 71.8427 102.98 71.5867 103.961 70.904C104.9 70.264 106.009 69.1547 107.289 67.576C108.569 66.04 109.892 64.2693 111.257 62.264C112.622 60.3013 113.902 58.296 115.097 56.248C116.334 54.2 117.38 52.344 118.233 50.68C119.086 48.9733 119.62 47.672 119.833 46.776C120.217 45.24 120.302 44.024 120.089 43.128C119.918 42.1893 119.62 41.4213 119.193 40.824C118.809 40.2267 118.425 39.6507 118.041 39.096C117.657 38.5413 117.465 37.816 117.465 36.92C117.465 35.9387 117.806 35.1493 118.489 34.552C119.172 33.9547 120.068 33.656 121.177 33.656C122.244 33.656 123.076 34.04 123.673 34.808C124.27 35.5333 124.569 36.6427 124.569 38.136C124.569 39.5013 124.206 41.2293 123.481 43.32C122.798 45.368 121.838 47.608 120.601 50.04C119.406 52.472 118.02 54.9467 116.441 57.464C114.862 59.9813 113.198 62.392 111.449 64.696C109.7 67.0427 107.929 69.1333 106.137 70.968C104.345 72.8453 102.638 74.3173 101.017 75.384C99.3957 76.4507 97.945 76.984 96.665 76.984ZM108.121 67.64C108.334 57.8693 107.844 50.3813 106.649 45.176C105.454 39.928 103.79 37.304 101.657 37.304C101.102 37.304 100.569 37.496 100.057 37.88C99.545 38.264 99.1183 38.7333 98.777 39.288C98.6917 39.4587 98.521 39.5227 98.265 39.48C98.0517 39.3947 97.9663 39.2667 98.009 39.096C98.777 37.4747 99.9077 36.1733 101.401 35.192C102.894 34.2107 104.238 33.72 105.433 33.72C106.841 33.72 108.078 34.424 109.145 35.832C110.212 37.1973 111.086 39.096 111.769 41.528C112.452 43.96 112.921 46.7547 113.177 49.912C113.433 53.0693 113.454 56.44 113.241 60.024L108.121 67.64ZM136.737 59.896C134.39 59.896 132.513 59.2773 131.105 58.04C129.74 56.8027 128.844 55.1813 128.417 53.176C127.99 51.1707 127.99 48.9947 128.417 46.648C128.929 44.0453 129.868 41.7627 131.233 39.8C132.598 37.7947 134.262 36.2373 136.225 35.128C138.188 34.0187 140.3 33.464 142.561 33.464C144.95 33.464 146.849 34.0613 148.257 35.256C149.665 36.408 150.604 37.9867 151.073 39.992C151.542 41.9547 151.521 44.1733 151.009 46.648C150.454 49.5493 149.409 52.0027 147.873 54.008C146.38 55.9707 144.652 57.4427 142.689 58.424C140.726 59.4053 138.742 59.896 136.737 59.896ZM138.913 58.296C140.278 58.296 141.452 57.5067 142.433 55.928C143.457 54.3067 144.204 52.152 144.673 49.464C145.014 47.544 145.164 45.7307 145.121 44.024C145.121 42.2747 144.929 40.7173 144.545 39.352C144.161 37.9867 143.628 36.92 142.945 36.152C142.262 35.384 141.43 35 140.449 35C139.254 35 138.145 35.7253 137.121 37.176C136.097 38.6267 135.308 40.8667 134.753 43.896C134.412 45.816 134.262 47.6507 134.305 49.4C134.348 51.1493 134.54 52.6853 134.881 54.008C135.265 55.3307 135.798 56.376 136.481 57.144C137.164 57.912 137.974 58.296 138.913 58.296ZM160.878 59.832C159.086 59.832 157.806 59.1493 157.038 57.784C156.313 56.376 156.227 54.2427 156.782 51.384L159.022 39.992C159.235 38.7547 159.235 37.944 159.022 37.56C158.851 37.176 158.574 36.984 158.19 36.984C157.763 36.984 157.273 37.1973 156.718 37.624C156.163 38.0507 155.545 38.584 154.862 39.224C154.691 39.3947 154.521 39.3947 154.35 39.224C154.179 39.0533 154.179 38.8827 154.35 38.712C155.715 37.0907 156.953 35.8533 158.062 35C159.171 34.1467 160.345 33.72 161.582 33.72C162.862 33.72 163.758 34.2107 164.27 35.192C164.825 36.1733 164.867 37.7733 164.398 39.992L162.414 50.168C161.987 52.216 161.945 53.7307 162.286 54.712C162.627 55.6933 163.246 56.184 164.142 56.184C165.379 56.184 166.638 55.3733 167.918 53.752C169.241 52.1307 170.478 49.7627 171.63 46.648C172.782 43.4907 173.742 39.6293 174.51 35.064L175.662 35.128C174.851 40.1627 173.699 44.536 172.206 48.248C170.713 51.96 169.006 54.8187 167.086 56.824C165.166 58.8293 163.097 59.832 160.878 59.832ZM173.998 59.576C172.633 59.576 171.737 59.1067 171.31 58.168C170.926 57.1867 170.883 55.8213 171.182 54.072L174.51 35.064C174.723 34.2107 175.918 33.784 178.094 33.784C178.947 33.784 179.502 33.848 179.758 33.976C180.057 34.104 180.206 34.2107 180.206 34.296C180.206 34.4667 180.099 35.0213 179.886 35.96C179.673 36.8987 179.459 37.9227 179.246 39.032L176.622 53.304C176.238 55.3947 176.558 56.44 177.582 56.44C178.009 56.44 178.521 56.2267 179.118 55.8C179.758 55.3733 180.483 54.7333 181.294 53.88C181.422 53.7093 181.571 53.7307 181.742 53.944C181.913 54.1147 181.934 54.2853 181.806 54.456C180.27 56.2907 178.883 57.6133 177.646 58.424C176.451 59.192 175.235 59.576 173.998 59.576ZM191.7 58.232L191.06 58.168C191.486 55.9067 191.977 53.624 192.532 51.32C193.086 48.9733 193.684 46.7547 194.324 44.664C195.006 42.5733 195.753 40.7173 196.564 39.096C197.374 37.432 198.249 36.1307 199.188 35.192C200.126 34.2107 201.129 33.72 202.196 33.72C202.878 33.72 203.582 33.912 204.308 34.296C205.033 34.6373 205.63 35.1067 206.1 35.704C206.569 36.3013 206.74 36.9627 206.612 37.688C206.569 38.2427 206.292 38.8187 205.78 39.416C205.268 40.0133 204.606 40.312 203.796 40.312C203.156 40.312 202.601 40.1627 202.132 39.864C201.662 39.5227 201.214 39.2027 200.788 38.904C200.404 38.5627 199.977 38.392 199.508 38.392C199.038 38.392 198.505 38.8613 197.908 39.8C197.31 40.696 196.692 41.8907 196.052 43.384C195.454 44.8773 194.857 46.52 194.26 48.312C193.705 50.0613 193.193 51.8107 192.724 53.56C192.297 55.3093 191.956 56.8667 191.7 58.232ZM188.116 59.512C187.305 59.512 186.75 59.448 186.452 59.32C186.153 59.2347 186.004 59.128 186.004 59C186.004 58.8293 186.132 58.2747 186.388 57.336C186.644 56.3973 186.857 55.3733 187.028 54.264L189.652 39.992C189.78 39.2667 189.822 38.6907 189.78 38.264C189.737 37.7947 189.609 37.4533 189.396 37.24C189.225 36.984 188.969 36.856 188.628 36.856C188.244 36.856 187.732 37.0693 187.092 37.496C186.494 37.9227 185.79 38.5627 184.98 39.416C184.809 39.5867 184.638 39.5867 184.468 39.416C184.297 39.2027 184.297 39.0107 184.468 38.84C186.004 37.0053 187.39 35.704 188.628 34.936C189.865 34.1253 191.081 33.72 192.276 33.72C193.214 33.72 193.918 33.9333 194.388 34.36C194.857 34.7867 195.134 35.4053 195.22 36.216C195.348 37.0267 195.305 38.0293 195.092 39.224L191.7 58.232C191.572 59.0853 190.377 59.512 188.116 59.512ZM291.24 59.768C288.765 59.768 286.824 59.1493 285.416 57.912C284.051 56.6747 283.155 55.096 282.728 53.176C282.344 51.256 282.344 49.2507 282.728 47.16C283.069 45.496 283.688 43.8533 284.584 42.232C285.48 40.568 286.611 39.096 287.976 37.816C289.341 36.4933 290.899 35.448 292.648 34.68C294.397 33.8693 296.275 33.464 298.28 33.464C300.029 33.464 301.331 33.7627 302.184 34.36C303.08 34.9573 303.485 35.8107 303.4 36.92C303.272 38.0293 302.696 39.096 301.672 40.12C300.648 41.144 299.283 42.0613 297.576 42.872C295.912 43.6827 294.035 44.3867 291.944 44.984C289.896 45.5387 287.805 45.9227 285.672 46.136L285.8 45.304C288.829 44.8347 291.368 44.0667 293.416 43C295.464 41.8907 296.637 40.312 296.936 38.264C297.107 37.3253 297 36.5787 296.616 36.024C296.275 35.4693 295.72 35.192 294.952 35.192C293.971 35.192 293.075 35.64 292.264 36.536C291.496 37.3893 290.813 38.5627 290.216 40.056C289.661 41.5493 289.235 43.2133 288.936 45.048C288.595 47.224 288.573 49.208 288.872 51C289.171 52.792 289.832 54.2427 290.856 55.352C291.88 56.4187 293.267 56.952 295.016 56.952C295.827 56.952 296.744 56.8027 297.768 56.504C298.835 56.2053 299.837 55.6933 300.776 54.968C300.861 54.8827 300.968 54.9253 301.096 55.096C301.267 55.2667 301.309 55.3947 301.224 55.48C299.603 57.0587 297.917 58.168 296.168 58.808C294.461 59.448 292.819 59.768 291.24 59.768ZM308.812 59.832C307.361 59.832 306.209 59.32 305.356 58.296C304.545 57.2293 304.311 55.5227 304.652 53.176C304.951 51 305.676 48.7813 306.828 46.52C308.023 44.216 309.473 42.0827 311.18 40.12C312.929 38.1147 314.764 36.5147 316.684 35.32C318.647 34.0827 320.524 33.464 322.316 33.464C323.169 33.464 324.044 33.6347 324.94 33.976C325.836 34.2747 326.604 34.7867 327.244 35.512C327.927 36.1947 328.311 37.112 328.396 38.264L324.556 36.152C325.281 36.0667 326.028 35.7253 326.796 35.128C327.607 34.5307 328.289 33.8053 328.844 32.952C328.929 32.824 329.079 32.8027 329.292 32.888C329.548 32.9733 329.655 33.0587 329.612 33.144L325.9 53.304C325.516 55.3093 325.751 56.312 326.604 56.312C327.031 56.312 327.543 56.12 328.14 55.736C328.737 55.3093 329.377 54.7547 330.06 54.072C330.188 53.944 330.337 53.9653 330.508 54.136C330.679 54.3067 330.7 54.456 330.572 54.584C329.249 56.1627 327.991 57.4 326.796 58.296C325.644 59.1493 324.513 59.576 323.404 59.576C322.039 59.576 321.1 59.0853 320.588 58.104C320.119 57.08 320.055 55.48 320.396 53.304L321.996 44.344L323.34 43.256C322.316 46.7547 320.993 49.7413 319.372 52.216C317.751 54.6907 316.023 56.5893 314.188 57.912C312.353 59.192 310.561 59.832 308.812 59.832ZM312.908 55.16C313.932 55.16 314.956 54.7547 315.98 53.944C317.004 53.1333 317.943 52.088 318.796 50.808C319.692 49.528 320.439 48.184 321.036 46.776C321.676 45.3253 322.103 44.0027 322.316 42.808C322.657 40.888 322.529 39.3733 321.932 38.264C321.335 37.1547 320.396 36.6 319.116 36.6C317.921 36.6 316.748 37.0907 315.596 38.072C314.444 39.0533 313.42 40.3973 312.524 42.104C311.628 43.8107 310.988 45.7733 310.604 47.992C310.177 50.68 310.22 52.5573 310.732 53.624C311.244 54.648 311.969 55.16 312.908 55.16ZM340.002 59.768C338.978 59.768 338.018 59.5973 337.122 59.256C336.226 58.9147 335.564 58.2533 335.138 57.272C334.711 56.2907 334.668 54.8613 335.01 52.984L337.506 39.416C337.762 38.008 337.762 37.0907 337.506 36.664C337.25 36.2373 336.524 36.024 335.33 36.024C335.159 36.024 335.074 35.8533 335.074 35.512C335.116 35.1707 335.202 35 335.33 35C337.378 35 339.042 34.424 340.322 33.272C341.644 32.12 342.69 30.8187 343.458 29.368C343.543 29.1973 343.778 29.1547 344.162 29.24C344.546 29.2827 344.716 29.3893 344.674 29.56L340.706 51.896C340.45 53.3893 340.578 54.4987 341.09 55.224C341.602 55.9067 342.519 56.248 343.842 56.248C344.695 56.248 345.548 56.056 346.402 55.672C347.298 55.288 348.236 54.6907 349.218 53.88C349.303 53.7947 349.431 53.8373 349.602 54.008C349.815 54.1787 349.858 54.328 349.73 54.456C347.767 56.3333 346.018 57.6987 344.482 58.552C342.988 59.3627 341.495 59.768 340.002 59.768ZM349.73 37.432C349.687 37.432 349.26 37.368 348.45 37.24C347.682 37.112 346.722 36.984 345.57 36.856C344.46 36.728 343.308 36.664 342.114 36.664L342.242 34.808C343.692 34.808 345.015 34.7653 346.21 34.68C347.404 34.5947 348.45 34.5093 349.346 34.424C350.242 34.3387 350.924 34.296 351.394 34.296C351.607 34.296 351.735 34.3813 351.778 34.552C351.863 34.7227 351.884 34.8933 351.842 35.064C351.799 35.4053 351.543 35.896 351.074 36.536C350.647 37.1333 350.199 37.432 349.73 37.432Z" fill="black"/>
<path d="M251.557 25.4062H255.307V35.125L251.557 36.0625V25.4062ZM238.369 38.5312V28.375H242.119V38.125L238.369 38.5312ZM274.557 47.3438C274.557 48.3229 274.244 49.1875 273.619 49.9375C272.994 50.6667 272.192 51.1146 271.213 51.2812L252.244 54.625C251.078 54.8333 250.005 54.875 249.026 54.75C248.067 54.6042 247.078 54.2812 246.057 53.7812L236.119 48.8438C234.453 48.0104 233.619 46.6667 233.619 44.8125V41.8438C233.619 40.8646 233.932 40.0104 234.557 39.2812C235.203 38.5312 236.005 38.0729 236.963 37.9062L256.932 34.4062C257.828 34.2396 258.588 34.2083 259.213 34.3125C259.838 34.3958 260.546 34.6354 261.338 35.0312L272.432 40.5312C273.849 41.2396 274.557 42.3854 274.557 43.9688V47.3438ZM271.432 47.3438V43.9688C271.432 43.6771 271.286 43.4583 270.994 43.3125L259.963 37.8438C259.442 37.5938 259.036 37.4479 258.744 37.4062C258.474 37.3646 258.036 37.3958 257.432 37.5L237.494 41C236.994 41.1042 236.744 41.3854 236.744 41.8438V44.8125C236.744 45.375 236.994 45.7812 237.494 46.0312L247.432 50.9688C248.182 51.3438 248.859 51.5729 249.463 51.6562C250.088 51.7188 250.838 51.6771 251.713 51.5312L270.682 48.1875C271.182 48.0833 271.432 47.8021 271.432 47.3438ZM250.963 52.9688V74.9375H247.213V51.5625L250.963 52.9688ZM272.463 41.875L272.994 44.9688L252.182 48.625C251.015 48.8333 249.942 48.875 248.963 48.75C248.005 48.625 247.015 48.3021 245.994 47.7812L235.057 42.25L236.432 39.4375L247.369 44.9688C248.119 45.3438 248.796 45.5729 249.401 45.6562C250.026 45.7188 250.776 45.6771 251.651 45.5312L272.463 41.875ZM271.869 49.1875V71.1562H268.119V50.4062L271.869 49.1875ZM260.026 52.6875V65.7812H256.276V52.6875H260.026ZM239.838 48V69.1875H236.088V47.3438L239.838 48ZM231.994 26.4375V15.5312C231.994 14.8438 232.203 14.25 232.619 13.75C233.036 13.2292 233.578 12.9167 234.244 12.8125L256.182 9.34375C257.14 9.17708 257.963 9.38542 258.651 9.96875C259.359 10.5521 259.713 11.3229 259.713 12.2812V24.0312C259.713 24.7188 259.505 25.3229 259.088 25.8438C258.671 26.3438 258.13 26.6458 257.463 26.75L239.932 29.5938C239.182 29.7188 238.453 29.8229 237.744 29.9062C237.057 29.9688 236.349 30 235.619 30C234.224 30 233.265 29.6979 232.744 29.0938C232.244 28.4688 231.994 27.5833 231.994 26.4375ZM236.994 26.9062V28.2812C236.744 28.1146 236.567 27.9062 236.463 27.6562C236.38 27.4062 236.338 27.1771 236.338 26.9688V15.5938C236.338 15.3646 236.369 15.1354 236.432 14.9062C236.494 14.6771 236.599 14.4688 236.744 14.2812L237.182 15.5938L235.494 15.7812C235.244 15.8229 235.119 15.9688 235.119 16.2188V26.4062C235.119 26.5521 235.182 26.6771 235.307 26.7812C235.432 26.8646 235.567 26.9062 235.713 26.9062H236.994ZM239.432 26.0625C239.432 26.2083 239.494 26.3333 239.619 26.4375C239.744 26.5417 239.88 26.5833 240.026 26.5625L256.213 23.7812C256.463 23.7396 256.588 23.5938 256.588 23.3438V13.0625C256.588 12.8958 256.526 12.7604 256.401 12.6562C256.296 12.5521 256.161 12.5208 255.994 12.5625L239.807 15.0625C239.557 15.1042 239.432 15.25 239.432 15.5V26.0625Z" fill="black"/>
</svg>
